<?xml version="1.0" encoding="iso-8859-1"?>
<!DOCTYPE svg PUBLIC "-//W3C//DTD SVG 1.1//EN" "http://www.w3.org/Graphics/SVG/1.1/DTD/svg11.dtd">
<svg 
 version="1.1" xmlns="http://www.w3.org/2000/svg" xmlns:xlink="http://www.w3.org/1999/xlink" x="0px" y="0px" width="512px"
	 height="512px" viewBox="0 0 512 512" style="enable-background:new 0 0 512 512;" xml:space="preserve"
><g id="afcae5a789ccd549f9c6e2a2f8131c98"><g></g><path fill-rule="evenodd" clip-rule="evenodd" d="M468.778,201.531c0,43.699-35.429,79.127-79.127,79.127l-266.638,0.332
		c-44.069,0-79.792-35.723-79.792-79.792c0-35.581,23.29-65.707,55.453-75.997c-1.475-7.058-2.258-14.365-2.258-21.859
		C96.417,44.586,144.049,0.5,202.806,0.5c36.686,0,69.031,17.188,88.159,44.398c10.552-5.7,22.818-8.935,35.961-8.935
		c39.173,0,70.927,28.208,70.927,67.38c0,6.688-0.991,13.132-2.723,19.269C436.272,125.428,468.778,159.675,468.778,201.531z
		 M276.717,316.526l-27.854,110.572h46.421L278.407,511.5l83.981-118.164h-41.783l41.783-76.81H276.717z M169.133,316.526
		l-16.71,66.344h27.852l-10.13,50.639l50.393-70.898h-25.066l25.066-46.084H169.133z"/></g></svg>